# xmcd
#
# Track frame offsets:
#	150
#	13502
#	26675
#	38805
#	51927
#	69710
#	84487
#	93817
#	106970
#	119605
#	130025
#	143510
#	156632
#	168677
#	185052
#	196410
#
# Disc length: 2758 seconds
#
# Revision: 6
# Processed by: cddbd v1.5.2PL0 Copyright (c) Steve Scherf et al.
# Submitted via: EasyCDDAExtractor 9.0.0.1
#
DISCID=df0ac410
DTITLE=Various Artist - Go Country CD3
DYEAR=1996
DGENRE=Country
TTITLE0=Mel McDaniel - Baby's Got Her Blue Jeans on
TTITLE1=Dr. Hook - When You're in Love with a Beautiful Woman
TTITLE2=George Jones - Girl I Used To Know
TTITLE3=Crystal Gayle - Talking in Your Sleep
TTITLE4=Bobby Goldsboro - Honey
TTITLE5=Cristy Lane - One Day At a Time
TTITLE6=Glen Campbell and Bobbie Gentry - Let It Be Me
TTITLE7=Merle Haggard and the Strangers - Fightin' Side of Me
TTITLE8=Susan Raye - La International Airport
TTITLE9=Duane Dee - Before the Next Teardrop Falls
TTITLE10=Dottie West - Lesson in Leavin'
TTITLE11=Glen Campbell - Southern Nights
TTITLE12=Penny Dehaven - Land Mark Tavern
TTITLE13=Kenny Rogers - Lucille
TTITLE14=Charlie Louvin - I Don't Love You Anymore
TTITLE15=Ferlin Husky - Wings of a Dove
EXTD=
EXTT0=
EXTT1=
EXTT2=
EXTT3=
EXTT4=
EXTT5=
EXTT6=
EXTT7=
EXTT8=
EXTT9=
EXTT10=
EXTT11=
EXTT12=
EXTT13=
EXTT14=
EXTT15=
PLAYORDER=
